<svg id="Keepers_Glove" data-name="Keepers Glove" xmlns="http://www.w3.org/2000/svg" width="15.03" height="22" viewBox="0 0 15.03 22">
  <metadata><?xpacket begin="﻿" id="W5M0MpCehiHzreSzNTczkc9d"?>
<x:xmpmeta xmlns:x="adobe:ns:meta/" x:xmptk="Adobe XMP Core 5.6-c138 79.159824, 2016/09/14-01:09:01        ">
   <rdf:RDF xmlns:rdf="http://www.w3.org/1999/02/22-rdf-syntax-ns#">
      <rdf:Description rdf:about=""/>
   </rdf:RDF>
</x:xmpmeta>
                                                                                                    
                                                                                                    
                                                                                                    
                                                                                                    
                                                                                                    
                                                                                                    
                                                                                                    
                                                                                                    
                                                                                                    
                                                                                                    
                                                                                                    
                                                                                                    
                                                                                                    
                                                                                                    
                                                                                                    
                                                                                                    
                                                                                                    
                                                                                                    
                                                                                                    
                                                                                                    
                           
<?xpacket end="w"?></metadata>
<defs>
    <style>
      .cls-1 {
        fill: #bac1c8;
        fill-rule: evenodd;
      }

      .cls-2 {
        fill: #9099a2;
      }

      .cls-3 {
        fill: #c2ff1f;
      }
    </style>
  </defs>
  <path id="Glove" class="cls-1" d="M1007,1952.83s0.28,3.61.57,5.02,0.38,4.71.94,6.19a9.779,9.779,0,0,1,.49,3.96c-0.03,1.06-.2,1.99,1.03,1.99h5.87a1.138,1.138,0,0,0,1.1-.99v-2s-0.25-.13,0-1a6.854,6.854,0,0,1,1.17-3.12c1.34-1.67,4.22-4.1,3.83-5.88-0.37-1.72-2.31.68-3,1s-1.49.53-1.4-.73,0.41-6.79.38-7.34-0.91-1.54-1.98.07v3h-1s-0.21-3.82-.24-4.03a1.128,1.128,0,0,0-1.13-.97c-0.87,0-.63.52-0.63,1v5h-1s0-4-.08-4.45a0.9,0.9,0,0,0-1.32-.58c-0.65.32-.62,1-0.6,2.03s0,7,0,7-0.81-6.67-2.05-6.33A1.426,1.426,0,0,0,1007,1952.83Z" transform="translate(-1007 -1948)"/>
  <rect id="Bottom_Detail" data-name="Bottom Detail" class="cls-2" y="16" width="12" height="6" rx="1" ry="1"/>
  <rect id="Detail" class="cls-3" x="1" y="18" width="7" height="2" rx="1" ry="1"/>
</svg>
