<svg id="Icon" xmlns="http://www.w3.org/2000/svg" width="129.094" height="120.18" viewBox="0 0 129.094 120.18">
  <metadata><?xpacket begin="﻿" id="W5M0MpCehiHzreSzNTczkc9d"?>
<x:xmpmeta xmlns:x="adobe:ns:meta/" x:xmptk="Adobe XMP Core 5.6-c138 79.159824, 2016/09/14-01:09:01        ">
   <rdf:RDF xmlns:rdf="http://www.w3.org/1999/02/22-rdf-syntax-ns#">
      <rdf:Description rdf:about=""/>
   </rdf:RDF>
</x:xmpmeta>
                                                                                                    
                                                                                                    
                                                                                                    
                                                                                                    
                                                                                                    
                                                                                                    
                                                                                                    
                                                                                                    
                                                                                                    
                                                                                                    
                                                                                                    
                                                                                                    
                                                                                                    
                                                                                                    
                                                                                                    
                                                                                                    
                                                                                                    
                                                                                                    
                                                                                                    
                                                                                                    
                           
<?xpacket end="w"?></metadata>
<defs>
    <style>
      .cls-1 {
        fill: #fafdff;
      }

      .cls-1, .cls-2, .cls-3, .cls-4 {
        fill-rule: evenodd;
      }

      .cls-2 {
        fill: #d3d9e0;
      }

      .cls-3 {
        fill: #f1f5f8;
      }

      .cls-4 {
        fill: #dcdfe2;
      }
    </style>
  </defs>
  <path id="Net" class="cls-1" d="M508.192,2007.9l1.415,1.41-69.3,69.3-1.414-1.42Zm9.9,9.9,1.414,1.41-69.3,69.3-1.415-1.42Zm9.9,9.89,1.415,1.42-69.3,69.3-1.414-1.42Zm9.9,9.9,1.414,1.42-69.3,69.3-1.415-1.42Zm9.9,9.9,1.415,1.42-69.3,69.29-1.414-1.41Zm9.9,9.9,1.414,1.42-69.3,69.29-1.415-1.41Zm1.414,19.8-1.414,1.42-69.3-69.3,1.415-1.41Zm-9.9,9.9-1.415,1.42-69.3-69.3,1.414-1.41Zm-9.9,9.9-1.414,1.42-69.3-69.3,1.415-1.42Zm-9.9,9.9-1.415,1.42-69.3-69.3,1.414-1.42Zm-9.9,9.9-1.414,1.41-69.3-69.29,1.415-1.42Zm-9.9,9.9-1.415,1.41-69.3-69.29,1.414-1.42Z" transform="translate(-430 -2007.91)"/>
  <path id="Outter_Color" data-name="Outter Color" class="cls-2" d="M513.952,2028.53H458.667a8.2,8.2,0,0,0-8.191,8.21V2086H438.19a8.2,8.2,0,0,1-8.19-8.21v-61.58a8.2,8.2,0,0,1,8.19-8.21h69.619a8.2,8.2,0,0,1,8.191,8.21v12.32h-2.048Z" transform="translate(-430 -2007.91)"/>
  <path id="Main_Base" data-name="Main Base" class="cls-3" d="M514,2030H460a8,8,0,0,0-8,8v48H440a8,8,0,0,1-8-8v-60a8,8,0,0,1,8-8h68a8,8,0,0,1,8,8v12h-2Z" transform="translate(-430 -2007.91)"/>
  <path id="Inner_Shadow" data-name="Inner Shadow" class="cls-4" d="M526,2042H472a8,8,0,0,0-8,8v48H452a8,8,0,0,1-8-8v-60a8,8,0,0,1,8-8h68a8,8,0,0,1,8,8v12h-2Z" transform="translate(-430 -2007.91)"/>
</svg>
