<svg id="Team_Shirt_01" data-name="Team Shirt 01" xmlns="http://www.w3.org/2000/svg" width="32" height="32" viewBox="0 0 32 32">
  <metadata><?xpacket begin="﻿" id="W5M0MpCehiHzreSzNTczkc9d"?>
<x:xmpmeta xmlns:x="adobe:ns:meta/" x:xmptk="Adobe XMP Core 5.6-c138 79.159824, 2016/09/14-01:09:01        ">
   <rdf:RDF xmlns:rdf="http://www.w3.org/1999/02/22-rdf-syntax-ns#">
      <rdf:Description rdf:about=""/>
   </rdf:RDF>
</x:xmpmeta>
                                                                                                    
                                                                                                    
                                                                                                    
                                                                                                    
                                                                                                    
                                                                                                    
                                                                                                    
                                                                                                    
                                                                                                    
                                                                                                    
                                                                                                    
                                                                                                    
                                                                                                    
                                                                                                    
                                                                                                    
                                                                                                    
                                                                                                    
                                                                                                    
                                                                                                    
                                                                                                    
                           
<?xpacket end="w"?></metadata>
<defs>
    <style>
      .cls-1 {
        fill: #91e44c;
      }

      .cls-1, .cls-2, .cls-3, .cls-4 {
        fill-rule: evenodd;
      }

      .cls-2 {
        fill: #2fbc4b;
      }

      .cls-3 {
        fill: #1ea23a;
      }

      .cls-4 {
        opacity: 0.15;
      }
    </style>
  </defs>
  <path id="Shirt_Left_Color" data-name="Shirt Left Color" class="cls-1" d="M17,34.992h0c-1.091-.025-4.912-0.2-6.757-0.369s-1.949-.369-1.949-0.369V33.639a26.919,26.919,0,0,1,.65-4.305,21.925,21.925,0,0,0,.13-10.21,15.967,15.967,0,0,1-.52-4.182,4.656,4.656,0,0,0-.13-0.738c-0.26.246-1.538,2.563-1.689,2.829s-0.78-.246-0.78-0.246a13.834,13.834,0,0,0-4.418-2.214c-0.715-.225-0.52-0.492-0.52-0.492l1.949-3.813c2.144-4.182,3.541-4.7,5.327-5.043A11.924,11.924,0,0,0,11.7,4h0.813A0.977,0.977,0,0,0,13,5c1.125,0.75,4,2.125,4,3h0V34.992Z" transform="translate(-1 -3)"/>
  <path id="Shirt_Right_Color" data-name="Shirt Right Color" class="cls-2" d="M32.439,14.591A13.814,13.814,0,0,0,28.028,16.8s-0.627.512-.778,0.246-1.427-2.581-1.687-2.827a4.654,4.654,0,0,0-.13.738,15.965,15.965,0,0,1-.519,4.178,21.921,21.921,0,0,0,.13,10.2,26.908,26.908,0,0,1,.649,4.3v0.615s-0.1.2-1.946,0.368S18.09,34.967,17,34.992V8c0-.875,2.556-2.25,3.555-3a1.024,1.024,0,0,0,.429-1h1.257a11.873,11.873,0,0,0,3.451,1.25c1.784,0.338,3.178.86,5.319,5.039l1.946,3.81S33.153,14.365,32.439,14.591Z" transform="translate(-1 -3)"/>
  <path id="Collar_Base" data-name="Collar Base" class="cls-3" d="M21.528,5.505a7.662,7.662,0,0,1-1.719,1.02A27.371,27.371,0,0,0,16.985,8a27.133,27.133,0,0,0-2.8-1.473,7.6,7.6,0,0,1-1.707-1.02,1.324,1.324,0,0,1-.244-1.7l0.239-.518A3.693,3.693,0,0,0,14,5c1.531,0.781,3.031,1.5,3,2-0.034-.5,1.593-1.219,3.254-2a2.043,2.043,0,0,0,1.122-1.988h0.029l0.368,0.793A1.318,1.318,0,0,1,21.528,5.505Z" transform="translate(-1 -3)"/>
  <path id="Collar_Top" data-name="Collar Top" class="cls-3" d="M21.528,5.505a7.662,7.662,0,0,1-1.719,1.02A27.371,27.371,0,0,0,16.985,8a27.133,27.133,0,0,0-2.8-1.473,7.6,7.6,0,0,1-1.707-1.02,1.324,1.324,0,0,1-.244-1.7l0.239-.518A3.693,3.693,0,0,0,14,5c1.531,0.781,3.031,1.5,3,2-0.034-.5,1.593-1.219,3.254-2a2.043,2.043,0,0,0,1.122-1.988h0.029l0.368,0.793A1.318,1.318,0,0,1,21.528,5.505Z" transform="translate(-1 -3)"/>
  <path id="Left_Sleeve" data-name="Left Sleeve" class="cls-3" d="M1.572,13a7.576,7.576,0,0,1,5.758,2.98c-0.287.5-.533,0.949-0.595,1.056-0.152.267-.78-0.246-0.78-0.246a13.834,13.834,0,0,0-4.418-2.214c-0.715-.225-0.52-0.492-0.52-0.492Z" transform="translate(-1 -3)"/>
  <path id="Right_Sleeve" data-name="Right Sleeve" class="cls-3" d="M27.265,17.033c-0.061-.108-0.308-0.552-0.595-1.056A7.576,7.576,0,0,1,32.428,13l0.554,1.084s0.195,0.267-.52.492a13.833,13.833,0,0,0-4.418,2.214S27.417,17.3,27.265,17.033Z" transform="translate(-1 -3)"/>
  <path id="Side_Left_Detail" data-name="Side Left Detail" class="cls-4" d="M9.074,19.124a11.806,11.806,0,0,1-.325-1.508c0.836,1.268,2.091,5.164,2.236,17.068-0.269-.02-0.521-0.041-0.742-0.061-1.845-.172-1.949-0.369-1.949-0.369V33.639a26.919,26.919,0,0,1,.65-4.305A21.925,21.925,0,0,0,9.074,19.124Z" transform="translate(-1 -3)"/>
  <path id="Side_Right_Detail" data-name="Side Right Detail" class="cls-4" d="M25.207,17.651a11.8,11.8,0,0,1-.324,1.505,21.882,21.882,0,0,0,.13,10.192,26.866,26.866,0,0,1,.649,4.3v0.614s-0.1.2-1.946,0.368c-0.22.02-.472,0.041-0.74,0.061C23.12,22.806,24.372,18.917,25.207,17.651Z" transform="translate(-1 -3)"/>
  <path id="Chest_Left_Detail" data-name="Chest Left Detail" class="cls-4" d="M8,13s3.906,5,8,5a28.969,28.969,0,0,1-6.964.974,16.279,16.279,0,0,1-.482-4.032,4.656,4.656,0,0,0-.13-0.738A4.556,4.556,0,0,0,8,14.831V13Z" transform="translate(-1 -3)"/>
  <path id="Chest_Right_Detail" data-name="Chest Right Detail" class="cls-4" d="M25.93,13v1.831a4.558,4.558,0,0,0-.423-0.627,4.666,4.666,0,0,0-.13.738,16.319,16.319,0,0,1-.481,4.032A28.825,28.825,0,0,1,17.951,18C22.034,18,25.93,13,25.93,13Z" transform="translate(-1 -3)"/>
</svg>
