<svg id="Soccer_Shoe" data-name="Soccer Shoe" xmlns="http://www.w3.org/2000/svg" width="20" height="17" viewBox="0 0 20 17">
  <metadata><?xpacket begin="﻿" id="W5M0MpCehiHzreSzNTczkc9d"?>
<x:xmpmeta xmlns:x="adobe:ns:meta/" x:xmptk="Adobe XMP Core 5.6-c138 79.159824, 2016/09/14-01:09:01        ">
   <rdf:RDF xmlns:rdf="http://www.w3.org/1999/02/22-rdf-syntax-ns#">
      <rdf:Description rdf:about=""/>
   </rdf:RDF>
</x:xmpmeta>
                                                                                                    
                                                                                                    
                                                                                                    
                                                                                                    
                                                                                                    
                                                                                                    
                                                                                                    
                                                                                                    
                                                                                                    
                                                                                                    
                                                                                                    
                                                                                                    
                                                                                                    
                                                                                                    
                                                                                                    
                                                                                                    
                                                                                                    
                                                                                                    
                                                                                                    
                                                                                                    
                           
<?xpacket end="w"?></metadata>
<defs>
    <style>
      .cls-1 {
        fill: #202020;
      }

      .cls-1, .cls-2, .cls-3 {
        fill-rule: evenodd;
      }

      .cls-2 {
        fill: #6f6f6f;
      }

      .cls-3 {
        fill: #fff;
      }
    </style>
  </defs>
  <path id="Rectángulo_redondeado_11_copia_3" data-name="Rectángulo redondeado 11 copia 3" class="cls-1" d="M1007.87,2244.2a1.008,1.008,0,0,1,1.39.38l0.52,0.89a1.028,1.028,0,0,1-1.78,1.03l-0.51-.9A1.029,1.029,0,0,1,1007.87,2244.2Zm3.54-2.06a1.029,1.029,0,0,1,1.4.38l0.51,0.89a1.024,1.024,0,1,1-1.77,1.03l-0.51-.89A1.04,1.04,0,0,1,1011.41,2242.14Zm3.55-2.05a1.017,1.017,0,0,1,1.4.37l0.51,0.89a1.024,1.024,0,1,1-1.77,1.03l-0.51-.89A1.017,1.017,0,0,1,1014.96,2240.09Zm3.55-2.06a1.022,1.022,0,0,1,1.4.38l0.51,0.89a1.028,1.028,0,0,1-1.78,1.03l-0.51-.9A1.029,1.029,0,0,1,1018.51,2238.03Zm3.54-2.06a1.029,1.029,0,0,1,1.4.38l0.52,0.89a1.029,1.029,0,0,1-.38,1.4,1.017,1.017,0,0,1-1.4-.37l-0.51-.89A1.04,1.04,0,0,1,1022.05,2235.97Z" transform="translate(-1005 -2230)"/>
  <path id="Forma_1" data-name="Forma 1" class="cls-2" d="M1020.58,2230.75a0.791,0.791,0,0,1,1.1-.64c0.87,0.38,2.47,3.3,3.03,4.43s0.75,2-4.17,4.67-12.85,7.45-12.85,7.45-1.83.36-2.44-.84-0.08-2.34.99-3.39a26.627,26.627,0,0,0,5.65-8.9s0.61-2.56,1.97-1.7,2.95,2.23,5,1.04S1020.58,2230.75,1020.58,2230.75Z" transform="translate(-1005 -2230)"/>
  <path id="Rectángulo_redondeado_11" data-name="Rectángulo redondeado 11" class="cls-3" d="M1006.69,2238.11a0.507,0.507,0,0,1,.62-0.37l4.95,1.33a0.524,0.524,0,0,1,.36.63,0.512,0.512,0,0,1-.63.37l-4.94-1.33A0.508,0.508,0,0,1,1006.69,2238.11Z" transform="translate(-1005 -2230)"/>
  <path id="Rectángulo_redondeado_11_copia" data-name="Rectángulo redondeado 11 copia" class="cls-3" d="M1007.22,2236.12a0.5,0.5,0,0,1,.62-0.36l4.95,1.33a0.513,0.513,0,1,1-.27.99l-4.94-1.33A0.5,0.5,0,0,1,1007.22,2236.12Z" transform="translate(-1005 -2230)"/>
  <path id="Rectángulo_redondeado_11_copia_2" data-name="Rectángulo redondeado 11 copia 2" class="cls-3" d="M1007.75,2234.13a0.508,0.508,0,0,1,.62-0.36l4.95,1.33a0.519,0.519,0,0,1,.36.63,0.5,0.5,0,0,1-.63.36l-4.94-1.33A0.5,0.5,0,0,1,1007.75,2234.13Z" transform="translate(-1005 -2230)"/>
  <path id="Rectángulo_redondeado_12" data-name="Rectángulo redondeado 12" class="cls-3" d="M1019.7,2234.96l0.89-.51a0.511,0.511,0,0,1,.7.19,0.52,0.52,0,0,1-.19.7l-0.89.51a0.508,0.508,0,0,1-.7-0.18A0.532,0.532,0,0,1,1019.7,2234.96Z" transform="translate(-1005 -2230)"/>
</svg>
