<svg id="Soccer_Ball_Missed_Penalty_" data-name="Soccer Ball Missed Penalty " xmlns="http://www.w3.org/2000/svg" width="18" height="18" viewBox="0 0 18 18">
  <metadata><?xpacket begin="﻿" id="W5M0MpCehiHzreSzNTczkc9d"?>
<x:xmpmeta xmlns:x="adobe:ns:meta/" x:xmptk="Adobe XMP Core 5.6-c138 79.159824, 2016/09/14-01:09:01        ">
   <rdf:RDF xmlns:rdf="http://www.w3.org/1999/02/22-rdf-syntax-ns#">
      <rdf:Description rdf:about=""/>
   </rdf:RDF>
</x:xmpmeta>
                                                                                                    
                                                                                                    
                                                                                                    
                                                                                                    
                                                                                                    
                                                                                                    
                                                                                                    
                                                                                                    
                                                                                                    
                                                                                                    
                                                                                                    
                                                                                                    
                                                                                                    
                                                                                                    
                                                                                                    
                                                                                                    
                                                                                                    
                                                                                                    
                                                                                                    
                                                                                                    
                           
<?xpacket end="w"?></metadata>
<defs>
    <style>
      .cls-1, .cls-3, .cls-4 {
        fill: #40484b;
      }

      .cls-2 {
        fill: #f8fafc;
      }

      .cls-3, .cls-4, .cls-6 {
        fill-rule: evenodd;
      }

      .cls-3 {
        opacity: 0.6;
      }

      .cls-5 {
        fill: #ee5353;
      }

      .cls-6 {
        fill: #fefeff;
      }
    </style>
  </defs>
  <circle id="Base" class="cls-1" cx="8" cy="8" r="8"/>
  <circle id="Inner_Color" data-name="Inner Color" class="cls-2" cx="7.985" cy="7.985" r="7.455"/>
  <path id="Stich_Details" data-name="Stich Details" class="cls-3" d="M1012.91,2544.53h0.18v4.1h-0.18v-4.1Zm-1.46,7.38,0.15,0.11-2.31,3.21-0.15-.1Zm-5.27-1.78,0.18-.05,1.02,3.8-0.18.05Zm12.51,3.51-0.18-.05,1.06-3.45,0.17,0.05Zm-2.42.54-0.14.11-1.89-2.4,0.14-.11Zm-8.5-5.82,0.06-.18,3.11,1.01-0.06.17Zm7.57,0.87-0.06-.17,2.96-.98,0.06,0.17Zm-0.1-5.34,0.1-.15,2.86,1.93-0.11.15Zm-4.64-.22,0.11,0.15-2.93,2.04-0.1-.15Zm0.53,12.73v-0.18h4.18v0.18h-4.18Z" transform="translate(-1005 -2542)"/>
  <path id="Black_Detail" data-name="Black Detail" class="cls-4" d="M1012.98,2547.28l2.53,1.84-0.96,2.98h-3.13l-0.97-2.98Z" transform="translate(-1005 -2542)"/>
  <path id="Black_Detail-2" data-name="Black Detail" class="cls-4" d="M1012.99,2544.82l2.54-.89-0.31-1.42h-4.46l-0.31,1.42Z" transform="translate(-1005 -2542)"/>
  <path id="Black_Detail-3" data-name="Black Detail" class="cls-4" d="M1017.9,2548.31l1.65,2.12,1.25-.75-1.41-4.22-1.46.16Z" transform="translate(-1005 -2542)"/>
  <path id="Black_Detail-4" data-name="Black Detail" class="cls-4" d="M1007.98,2548.3l-1.64,2.12-1.25-.75,1.41-4.22,1.45,0.16Z" transform="translate(-1005 -2542)"/>
  <path id="Black_Detail-5" data-name="Black Detail" class="cls-4" d="M1009.81,2554.19l1.6,2.15-1.05,1-3.69-2.49,0.54-1.35Z" transform="translate(-1005 -2542)"/>
  <path id="Black_Detail-6" data-name="Black Detail" class="cls-4" d="M1016.12,2554.14l-1.55,2.19,1.08,0.98,3.62-2.59-0.57-1.33Z" transform="translate(-1005 -2542)"/>
  <g id="P_" data-name="P ">
    <circle id="Base-2" data-name="Base" class="cls-5" cx="12.5" cy="12.5" r="5.5"/>
    <path id="P" class="cls-6" d="M1017.76,2552.68h-1.73v4.89h1.09v-1.36h0.65a2.593,2.593,0,0,0,1.62-.42,1.613,1.613,0,0,0,.53-1.33,1.674,1.674,0,0,0-.52-1.34,2.456,2.456,0,0,0-1.64-.44h0Zm0.1,2.58h-0.74v-1.64h0.63a1.5,1.5,0,0,1,.79.17,0.693,0.693,0,0,1,.26.61,0.943,0.943,0,0,1-.2.64,0.962,0.962,0,0,1-.74.22h0Z" transform="translate(-1005 -2542)"/>
  </g>
</svg>
