<svg xmlns="http://www.w3.org/2000/svg" width="250.124" height="308.937" viewBox="0 0 250.124 308.937">
  <metadata><?xpacket begin="﻿" id="W5M0MpCehiHzreSzNTczkc9d"?>
<x:xmpmeta xmlns:x="adobe:ns:meta/" x:xmptk="Adobe XMP Core 5.6-c138 79.159824, 2016/09/14-01:09:01        ">
   <rdf:RDF xmlns:rdf="http://www.w3.org/1999/02/22-rdf-syntax-ns#">
      <rdf:Description rdf:about=""/>
   </rdf:RDF>
</x:xmpmeta>





















<?xpacket end="w"?></metadata>
<defs>
    <style>
      .cls-1 {
        fill: #e1e3e8;
        fill-rule: evenodd;
      }
    </style>
  </defs>
  <path id="Ghost" class="cls-1" d="M634.566,818.886a9.386,9.386,0,0,1-3.46-.65,9.648,9.648,0,0,1-6.167-9V644.358c0-74.1,56.1-134.4,125.056-134.4s125.066,60.294,125.066,134.4V809.235a9.626,9.626,0,0,1-16.819,6.419l-35.5-40-28.749,39.295a9.627,9.627,0,0,1-7.765,3.939h0a9.616,9.616,0,0,1-7.766-3.949l-28.035-38.351L721.9,814.994a9.61,9.61,0,0,1-7.719,3.892h-0.066a9.6,9.6,0,0,1-7.728-3.987l-28.41-39.34L641.7,815.71A9.609,9.609,0,0,1,634.566,818.886Zm44.251-68.276c0.179,0,.349.009,0.527,0.019a9.582,9.582,0,0,1,7.267,3.967l27.678,38.334,28.486-38.353a9.6,9.6,0,0,1,7.719-3.892h0.037a9.616,9.616,0,0,1,7.728,3.949l27.978,38.276,28.016-38.3a9.65,9.65,0,0,1,7.314-3.931,9.475,9.475,0,0,1,7.643,3.224l26.6,29.973V644.358c0-63.461-47.468-115.093-105.812-115.093s-105.8,51.632-105.8,115.093V784.2l27.488-30.416A9.631,9.631,0,0,1,678.817,750.61Zm100.11-115.143a19.207,19.207,0,1,0,19.207-19.248A19.231,19.231,0,0,0,778.927,635.467Zm-96.27,0a19.207,19.207,0,1,0,19.207-19.248A19.232,19.232,0,0,0,682.657,635.467Z" transform="translate(-624.938 -509.969)"/>
</svg>
