<?xml version="1.0" encoding="utf-8"?>
<!-- Generator: Adobe Illustrator 16.0.0, SVG Export Plug-In . SVG Version: 6.00 Build 0)  -->
<!DOCTYPE svg PUBLIC "-//W3C//DTD SVG 1.1//EN" "http://www.w3.org/Graphics/SVG/1.1/DTD/svg11.dtd">
<svg version="1.1" id="Layer_1" xmlns="http://www.w3.org/2000/svg" xmlns:xlink="http://www.w3.org/1999/xlink" x="0px" y="0px"
	 width="80px" height="30px" viewBox="0 0 80 30" enable-background="new 0 0 80 30" xml:space="preserve">
<g>
	<g>
		<path fill="#D1D3D4" d="M12.163,1.5c-4.55,0-7.347,1.268-10.032,3.542L5.04,8.511c2.014-1.716,3.99-2.797,7.31-2.797
			c4.16,0,7.453,3.151,8.269,7.234h4.857C24.54,6.568,19.283,1.5,12.163,1.5z"/>
		<path fill="#D1D3D4" d="M34.052,6.012h6.601c2.946,0,4.587,1.268,4.587,3.319v0.075c0,2.387-1.976,3.542-4.922,3.542h7.878
			c0.962-1.007,1.632-2.375,1.632-4.288V8.585c0-1.752-0.598-3.17-1.753-4.325c-1.492-1.492-3.842-2.313-6.825-2.313h-11.71v11.001
			h4.513V6.012z"/>
		<path fill="#D1D3D4" d="M67.65,5.714c3.319,0,5.296,1.081,7.31,2.797l2.908-3.469C75.184,2.768,72.387,1.5,67.837,1.5
			c-7.12,0-12.377,5.068-13.313,11.448h4.857C60.198,8.865,63.491,5.714,67.65,5.714z"/>
	</g>
	<g>
		<path fill="#D1D3D4" d="M11.939,24.322c-2.461,0-4.699-0.782-6.302-1.977v-4.87H1.198v6.959c2.573,2.2,6.265,4.065,10.89,4.065
			c7.283,0,12.338-4.628,13.348-11.024h-4.892C19.624,21.541,16.412,24.322,11.939,24.322z"/>
		<path fill="#D1D3D4" d="M46.694,20.332v0.074c0,2.35-1.902,3.581-5.035,3.581h-7.607v-6.512h-4.513v10.576h12.083
			c5.817,0,9.659-2.498,9.659-7.16v-0.074c0-1.357-0.314-2.449-0.87-3.342h-5.542C46.09,18.067,46.694,19.045,46.694,20.332z"/>
		<path fill="#D1D3D4" d="M74.363,22.346c-1.604,1.194-3.842,1.977-6.303,1.977c-4.473,0-7.685-2.781-8.604-6.847h-4.893
			C55.574,23.872,60.629,28.5,67.911,28.5c4.625,0,8.317-1.865,10.891-4.065v-6.959h-4.438V22.346z"/>
	</g>
</g>
</svg>
